<?xml version="1.0" encoding="UTF-8" standalone="no"?>
<!DOCTYPE svg PUBLIC "-//W3C//DTD SVG 1.1//EN" "http://www.w3.org/Graphics/SVG/1.1/DTD/svg11.dtd">
<svg width="100%" height="100%" viewBox="0 0 1706 2098" version="1.1" xmlns="http://www.w3.org/2000/svg" xmlns:xlink="http://www.w3.org/1999/xlink" xml:space="preserve" xmlns:serif="http://www.serif.com/" style="fill-rule:evenodd;clip-rule:evenodd;stroke-linejoin:round;stroke-miterlimit:2;">
    <g transform="matrix(1,0,0,1,-2222.347708,-413.703472)">
        <g transform="matrix(4.166667,0,0,4.166667,0,0)">
            <g transform="matrix(409.227386,0,0,-409.227386,533.363892,350.964071)">
                <path d="M0.486,0.611L0.04,0.425C0.039,0.425 0.039,0.425 0.039,0.425C0.015,0.415 -0,0.391 0,0.364L0.007,-0.107C0.007,-0.142 0.014,-0.175 0.029,-0.207C0.061,-0.279 0.15,-0.42 0.378,-0.55L0.483,-0.61C0.484,-0.61 0.485,-0.611 0.486,-0.611C0.49,-0.614 0.495,-0.615 0.5,-0.615C0.5,-0.615 0.5,-0.615 0.5,-0.615C0.505,-0.615 0.51,-0.614 0.514,-0.611C0.515,-0.611 0.516,-0.61 0.517,-0.61L0.622,-0.55C0.85,-0.42 0.939,-0.279 0.971,-0.207C0.986,-0.175 0.993,-0.142 0.993,-0.107L1,0.364C1,0.391 0.985,0.415 0.961,0.425C0.961,0.425 0.961,0.425 0.96,0.425L0.514,0.611C0.51,0.614 0.505,0.615 0.5,0.615C0.5,0.615 0.5,0.615 0.5,0.615C0.495,0.615 0.49,0.614 0.486,0.611ZM0.078,-0.184C0.066,-0.16 0.061,-0.134 0.06,-0.106L0.054,0.365C0.054,0.37 0.056,0.374 0.061,0.376L0.495,0.557C0.498,0.558 0.502,0.558 0.505,0.557L0.939,0.376C0.944,0.374 0.946,0.37 0.946,0.365L0.94,-0.106C0.939,-0.134 0.934,-0.16 0.922,-0.184C0.895,-0.246 0.822,-0.362 0.641,-0.476L0.641,-0.351L0.815,-0.18C0.824,-0.183 0.833,-0.184 0.843,-0.182C0.866,-0.178 0.884,-0.158 0.885,-0.134C0.887,-0.101 0.86,-0.074 0.827,-0.078C0.803,-0.08 0.783,-0.099 0.78,-0.123C0.778,-0.136 0.781,-0.147 0.787,-0.157L0.609,-0.331C0.606,-0.334 0.604,-0.339 0.604,-0.344L0.604,-0.499C0.601,-0.5 0.598,-0.502 0.595,-0.504L0.519,-0.547L0.519,-0.181C0.532,-0.174 0.542,-0.16 0.542,-0.144C0.542,-0.128 0.532,-0.114 0.519,-0.107L0.519,0.015C0.574,-0.111 0.681,-0.107 0.726,-0.089C0.75,-0.079 0.761,-0.055 0.762,-0.03C0.766,0.03 0.736,0.082 0.685,0.11C0.794,0.113 0.833,0.217 0.832,0.265C0.831,0.291 0.812,0.309 0.79,0.319C0.727,0.349 0.642,0.334 0.597,0.28C0.597,0.28 0.654,0.417 0.527,0.471C0.51,0.479 0.49,0.479 0.473,0.471C0.346,0.417 0.403,0.28 0.403,0.28C0.358,0.334 0.273,0.349 0.21,0.319C0.188,0.309 0.169,0.291 0.168,0.265C0.167,0.217 0.206,0.113 0.315,0.11C0.264,0.082 0.234,0.03 0.238,-0.03C0.239,-0.055 0.25,-0.079 0.274,-0.089C0.319,-0.107 0.427,-0.112 0.482,0.015L0.482,-0.107C0.468,-0.114 0.458,-0.128 0.458,-0.144C0.458,-0.16 0.468,-0.174 0.482,-0.181L0.482,-0.547L0.405,-0.504C0.402,-0.502 0.399,-0.5 0.396,-0.499L0.396,-0.344C0.396,-0.339 0.394,-0.334 0.391,-0.331L0.216,-0.16C0.223,-0.15 0.226,-0.138 0.225,-0.125C0.223,-0.1 0.203,-0.081 0.178,-0.078C0.147,-0.074 0.12,-0.099 0.12,-0.13C0.12,-0.16 0.143,-0.183 0.172,-0.183C0.177,-0.183 0.182,-0.183 0.186,-0.181L0.36,-0.351L0.36,-0.477C0.178,-0.362 0.105,-0.246 0.078,-0.184ZM0.5,0.291C0.513,0.252 0.5,0.131 0.5,0.131C0.5,0.131 0.487,0.252 0.5,0.291ZM0.664,0.209C0.664,0.209 0.579,0.182 0.515,0.122C0.515,0.122 0.585,0.218 0.664,0.209ZM0.336,0.209C0.415,0.218 0.485,0.122 0.485,0.122C0.421,0.182 0.336,0.209 0.336,0.209ZM0.537,0.093C0.594,0.099 0.635,0.029 0.635,0.029C0.591,0.071 0.537,0.093 0.537,0.093ZM0.463,0.093C0.463,0.093 0.409,0.071 0.365,0.029C0.365,0.029 0.406,0.099 0.463,0.093ZM0.813,-0.13C0.813,-0.119 0.822,-0.111 0.832,-0.111C0.843,-0.111 0.852,-0.119 0.852,-0.13C0.852,-0.141 0.843,-0.15 0.832,-0.15C0.822,-0.15 0.813,-0.141 0.813,-0.13ZM0.153,-0.13C0.153,-0.119 0.162,-0.111 0.172,-0.111C0.183,-0.111 0.192,-0.119 0.192,-0.13C0.192,-0.141 0.183,-0.15 0.172,-0.15C0.162,-0.15 0.153,-0.141 0.153,-0.13Z" style="fill:url(#_Linear1);fill-rule:nonzero;"/>
            </g>
        </g>
    </g>
    <defs>
        <linearGradient id="_Linear1" x1="0" y1="0" x2="1" y2="0" gradientUnits="userSpaceOnUse" gradientTransform="matrix(1,0,0,-1,0,-0.000068)"><stop offset="0" style="stop-color:rgb(109,91,245);stop-opacity:1"/><stop offset="0.5" style="stop-color:rgb(160,142,239);stop-opacity:1"/><stop offset="1" style="stop-color:rgb(192,154,232);stop-opacity:1"/><stop offset="1" style="stop-color:rgb(192,154,232);stop-opacity:1"/></linearGradient>
    </defs>
</svg>
