<svg width="689" height="266" viewBox="0 0 689 266" fill="none" xmlns="http://www.w3.org/2000/svg">
<path d="M359.72 224.029L378.72 225.769C392.779 227.092 402.94 230.78 402.94 242.264C402.94 256.392 388.464 265.509 367.306 265.509C347.958 265.509 334.735 258.967 334.735 247.344C334.804 238.714 343.295 234.469 350.881 232.381C344.13 230.363 340.233 226.674 340.233 220.48C340.233 214.703 344.687 211.293 350.046 208.579C342.321 204.612 337.171 197.443 337.171 187.7C337.171 172.388 349.768 163.41 365.358 163.41C369.881 163.41 374.266 164.246 378.094 165.846H402.383V171.066H386.376C390.83 175.242 393.614 181.018 393.614 187.909C393.614 203.011 381.086 211.989 365.427 211.989C361.112 211.989 356.936 211.293 353.317 209.971C350.881 211.989 349.281 214.077 349.281 217C349.281 221.663 353.456 223.403 359.72 224.029ZM364.87 168.491C355.962 168.491 349.768 176.147 349.768 186.934C349.768 198.278 356.171 206.908 366.053 206.908C374.962 206.908 381.156 199.253 381.156 188.465C381.156 177.121 374.683 168.491 364.87 168.491ZM368.141 260.289C382.339 260.289 391.456 253.886 391.456 245.465C391.456 239.062 386.306 237.114 377.05 236.07L358.467 233.842C357.215 233.703 355.962 233.494 354.779 233.286C350.325 236.209 346.079 239.758 346.079 246.3C346.01 254.304 354.013 260.289 368.141 260.289Z" fill="#333333"/>
<path d="M319.009 186.795V221.245C319.009 229.736 321.097 232.381 330.075 233.286V236H295.068V233.286C304.464 232.381 306.551 229.736 306.551 221.245V187.282C306.551 176.982 301.401 172.11 292.493 172.11C283.654 172.11 277.878 177.469 274.537 182.55V221.245C274.537 229.736 276.625 232.381 285.951 233.286V236H250.248V233.286C259.852 232.381 262.009 229.736 262.009 221.245V181.366C262.009 173.711 259.713 170.996 250.944 171.205V168.561L273.006 163.41L273.841 164.176V177.956C276.555 172.388 283.584 163.48 296.738 163.48C310.31 163.48 319.009 171.205 319.009 186.795Z" fill="#333333"/>
<path d="M227.705 153.388C222.485 153.388 218.935 149.7 218.935 144.619C218.935 139.539 222.485 135.85 227.705 135.85C232.924 135.85 236.474 139.539 236.474 144.619C236.474 149.7 232.924 153.388 227.705 153.388ZM234.943 221.245C234.943 229.736 237.031 232.381 246.009 233.286V236H210.653V233.286C220.258 232.381 222.415 229.736 222.415 221.245V181.366C222.415 173.711 220.119 170.996 211.349 171.205V168.561L234.107 163.41L234.943 164.176V221.245Z" fill="#333333"/>
<path d="M185.161 167.725V165.081H208.268V167.725C203.117 168.63 201.238 171.136 198.176 178.861L174.861 236.835H168.249L144.726 178.861C141.663 171.136 139.784 168.63 134.564 167.725V165.081H164.7V167.725C157.323 168.63 155.304 171.414 158.715 179.835L174.791 220.549L191.147 179.835C194.487 171.414 192.539 168.63 185.161 167.725Z" fill="#333333"/>
<path d="M116.98 153.388C111.761 153.388 108.211 149.7 108.211 144.619C108.211 139.539 111.761 135.85 116.98 135.85C122.2 135.85 125.75 139.539 125.75 144.619C125.75 149.7 122.2 153.388 116.98 153.388ZM124.219 221.245C124.219 229.736 126.306 232.381 135.284 233.286V236H99.9292V233.286C109.534 232.381 111.691 229.736 111.691 221.245V181.366C111.691 173.711 109.394 170.996 100.625 171.205V168.561L123.383 163.41L124.219 164.176V221.245Z" fill="#333333"/>
<path d="M54.3256 191.319V188.465H95.1094V191.11C87.7321 192.084 85.9226 194.729 85.9226 203.15V226.883C81.1204 230.641 69.2193 237.879 51.0546 237.879C20.9887 237.879 0.179199 217.974 0.179199 185.89C0.179199 153.667 20.9887 133.832 50.8458 133.832C67.6882 133.832 79.3109 140.235 84.3915 143.993L86.6186 167.795H83.2779C78.8237 150.048 67.6186 139.399 50.3586 139.399C28.9923 139.399 14.5162 157.564 14.5162 184.289C14.5162 213.451 30.6626 232.172 51.9593 232.172C62.0509 232.172 69.7065 227.996 73.3256 224.517V204.125C73.3256 195.077 69.7761 192.224 54.3256 191.319Z" fill="#333333"/>
<path d="M653.27 86.6008L654.244 39.1357H641.438V36.143C648.677 30.4361 655.845 24.5899 662.944 18.883H665.867V33.8463H687.233V39.1357H665.867V87.1575C665.867 93.4213 669.208 96.9011 674.706 96.9011C679.717 96.9011 683.197 94.7436 686.259 91.403L688.416 92.9341C685.772 98.641 680.83 105.462 670.252 105.462C659.255 105.462 653.061 98.5714 653.27 86.6008Z" fill="#333333"/>
<path d="M629.863 54.795V89.2454C629.863 97.7363 631.951 100.381 640.929 101.286V104H605.922V101.286C615.317 100.381 617.405 97.7363 617.405 89.2454V55.2821C617.405 44.9818 612.255 40.11 603.346 40.11C594.508 40.11 588.731 45.469 585.39 50.5496V89.2454C585.39 97.7363 587.478 100.381 596.804 101.286V104H561.101V101.286C570.705 100.381 572.863 97.7363 572.863 89.2454V49.3664C572.863 41.7107 570.566 38.9965 561.797 39.2053V36.5606L583.859 31.4104L584.694 32.176V45.9562C587.409 40.3884 594.438 31.48 607.592 31.48C621.163 31.48 629.863 39.2053 629.863 54.795Z" fill="#333333"/>
<path d="M553.845 61.0587V63.5642H504.5C504.848 85.0696 514.522 95.1612 527.955 95.1612C539.02 95.1612 546.537 89.1063 550.434 79.7107L553.288 80.6154C551.2 91.4725 543.892 105.67 525.171 105.67C505.892 105.67 492.808 92.0989 492.808 68.5752C492.808 44.9818 505.892 31.4104 525.031 31.4104C544.031 31.4104 553.845 44.2162 553.845 61.0587ZM504.64 58.414H541.804C541.526 45.5386 536.237 36.839 524.544 36.839C513.339 36.839 505.823 44.2858 504.64 58.414Z" fill="#333333"/>
<path d="M468.107 21.3885C462.888 21.3885 459.338 17.6998 459.338 12.6192C459.338 7.53867 462.888 3.85004 468.107 3.85004C473.327 3.85004 476.877 7.53867 476.877 12.6192C476.877 17.6998 473.327 21.3885 468.107 21.3885ZM475.345 89.2455C475.345 97.7363 477.433 100.381 486.411 101.286V104H451.056V101.286C460.661 100.381 462.818 97.7363 462.818 89.2455V49.3664C462.818 41.7108 460.521 38.9965 451.752 39.2053V36.5606L474.51 31.4104L475.345 32.176V89.2455Z" fill="#333333"/>
<path d="M383.715 68.5752C383.715 44.9818 397.217 31.4104 417.678 31.4104C434.103 31.4104 443.986 40.8756 443.986 50.6887C443.986 54.8646 441.759 57.4396 437.792 57.4396C433.755 57.4396 431.598 54.7254 430.902 49.6448C429.44 40.5972 424.568 36.9086 416.843 36.9086C403.968 36.9086 395.686 48.3921 395.686 65.7217C395.686 84.0953 405.29 95.6484 419.418 95.6484C432.363 95.6484 438.696 87.9927 441.48 80.1978L444.264 80.8938C442.594 91.7509 435.773 105.67 416.843 105.67C397.217 105.67 383.715 92.0989 383.715 68.5752Z" fill="#333333"/>
<path d="M366.222 89.3151C366.222 97.7363 368.31 100.381 377.218 101.286V104H342.002V101.286C351.537 100.381 353.764 97.7363 353.764 89.3151V39.1357H318.826V89.3151C318.826 97.7363 321.193 100.381 331.632 101.286V104H294.537V101.286C304.141 100.381 306.299 97.7363 306.299 89.3151V39.1357H271.361V89.3151C271.361 97.7363 273.797 100.381 284.167 101.286V104H247.072V101.286C256.676 100.381 258.903 97.7363 258.903 89.3151V39.1357H244.288V33.8463H258.903V30.5057C258.903 10.8793 270.457 1.48375 285.42 1.48375C294.607 1.48375 301.497 6.21634 301.497 11.1577C301.497 14.1504 299.757 16.3079 296.416 16.2383C293.076 16.2383 291.127 14.0112 289.387 11.1577C287.786 8.86102 285.837 7.05151 282.288 7.05151C274.702 7.05151 271.361 12.828 271.361 24.4507V33.8463H306.299V30.6449C306.299 10.1138 320.497 0.0222168 340.123 0.0222168C354.46 0.0222168 365.665 6.21634 365.665 14.568C365.665 18.535 363.299 21.3189 359.123 21.3189C354.39 21.2493 352.442 18.3262 350.632 14.4288C347.918 8.72183 344.09 5.58997 336.574 5.58997C325.299 5.58997 318.826 12.6889 318.826 26.8866V33.8463H366.222V89.3151Z" fill="#333333"/>
<path d="M239.011 61.0587V63.5642H189.667C190.015 85.0696 199.689 95.1612 213.121 95.1612C224.187 95.1612 231.703 89.1063 235.601 79.7107L238.454 80.6154C236.366 91.4725 229.059 105.67 210.337 105.67C191.059 105.67 177.975 92.0989 177.975 68.5752C177.975 44.9818 191.059 31.4104 210.198 31.4104C229.198 31.4104 239.011 44.2162 239.011 61.0587ZM189.806 58.414H226.971C226.692 45.5386 221.403 36.839 209.711 36.839C198.506 36.839 190.989 44.2858 189.806 58.414Z" fill="#333333"/>
<path d="M168.789 68.5752C168.789 92.4469 153.199 105.67 133.434 105.67C113.668 105.67 98.0088 92.4469 98.0088 68.5752C98.0088 44.6338 113.668 31.4104 133.434 31.4104C153.199 31.4104 168.789 44.6338 168.789 68.5752ZM155.148 70.0367C155.148 49.9928 146.031 36.839 132.598 36.839C120.28 36.839 111.65 49.2272 111.65 67.044C111.65 87.0879 120.767 100.242 134.199 100.242C146.587 100.242 155.148 87.8535 155.148 70.0367Z" fill="#333333"/>
<path d="M83.5563 70.9415H86.897L84.4611 95.9964C80.1461 99.6154 68.7322 105.879 51.0546 105.879C20.9191 105.879 0.179199 85.9744 0.179199 53.8902C0.179199 21.6668 20.9191 1.83173 51.0546 1.83173C68.245 1.83173 79.7285 8.23464 84.6003 11.7841L86.6882 36.0734H83.4171C78.4757 18.0478 67.6882 7.39948 50.3586 7.39948C28.9923 7.39948 14.5162 25.5643 14.5162 52.2895C14.5162 81.4506 30.6626 100.311 51.9593 100.311C68.1754 100.311 78.6845 90.1502 83.5563 70.9415Z" fill="#333333"/>
</svg>
